Patient4_TMGait_0pt2_01_right_24_GRF.mot
version=1
nRows=38
nColumns=19
inDegrees=no
endheader
time	F1x	F1y	F1z	M1x	M1y	M1z	F2x	F2y	F2z	M2x	M2y	M2z	EC1x	EC1y	EC1z	EC2x	EC2y	EC2z
53.88	-15.4387	836.0584	40.5502	-291.8194	-46.8642	920.5396	6.3447	25.3187	-3.3985	8.6019	2.2425	24.3519	-0.0592	0.0182	-0.0073	-0.0462	0.0165	0.9585
53.9017	-13.9378	851.15	42.1344	-296.5131	-47.8196	933.1939	3.7546	18.6504	-2.4438	6.3905	1.8658	17.8883	-0.0592	0.0182	-0.0073	-0.0462	0.0165	0.9585
53.9234	-12.09	863.5288	43.7198	-300.1786	-48.5878	942.5119	1.7872	12.3526	-1.5651	4.2726	1.3946	11.7918	-0.0592	0.0182	-0.0073	-0.0462	0.0165	0.9585
53.9451	-9.9204	870.7543	45.1523	-301.9804	-49.0259	946.0672	0.50267	7.0621	-0.84493	2.4735	0.90766	6.6798	-0.0592	0.0182	-0.0073	-0.0462	0.0165	0.9585
53.9669	-7.4455	871.4298	46.2905	-301.4589	-49.0056	942.4968	-0.22913	3.0575	-0.31511	1.0992	0.48203	2.8231	-0.0592	0.0182	-0.0073	-0.0462	0.0165	0.9585
53.9886	-4.6821	865.3932	47.0077	-298.6049	-48.4183	931.706	-0.56213	0.29988	0.034362	0.14399	0.1538	0.18245	-0.0592	0.0182	-0.0073	-0.0462	0.0165	0.9585
54.0103	-1.6635	853.4861	47.2061	-293.7674	-47.1922	914.6362	-0.63642	-1.4239	0.236	-0.4616	-0.071424	-1.4583	-0.0592	0.0182	-0.0073	-0.0462	0.0165	0.9585
54.032	1.5752	837.1539	46.8531	-287.4929	-45.3179	892.8413	-0.56358	-2.4019	0.33006	-0.81463	-0.2064	-2.3881	-0.0592	0.0182	-0.0073	-0.0462	0.0165	0.9585
54.0537	4.9913	818.0723	46.0082	-280.3857	-42.8783	868.1168	-0.42712	-2.9291	0.35509	-1.0161	-0.27269	-2.9027	-0.0592	0.0182	-0.0073	-0.0462	0.0165	0.9585
54.0754	8.5187	797.8562	44.7982	-273.01	-40.0298	842.2183	-0.28314	-3.2716	0.34369	-1.1577	-0.29304	-3.2752	-0.0592	0.0182	-0.0073	-0.0462	0.0165	0.9585
54.0971	12.0487	777.8952	43.385	-265.8318	-36.9721	816.6908	-0.16299	-3.6493	0.32035	-1.3147	-0.28834	-3.7292	-0.0592	0.0182	-0.0073	-0.0462	0.0165	0.9585
54.1189	15.4471	759.3436	41.9497	-259.22	-33.9297	792.8412	-0.077698	-4.2129	0.30373	-1.5402	-0.28052	-4.4147	-0.0592	0.0182	-0.0073	-0.0462	0.0165	0.9585
54.1406	18.5884	743.2278	40.6607	-253.4938	-31.1141	771.8265	-0.020264	-5.0333	0.30715	-1.8596	-0.29185	-5.4001	-0.0592	0.0182	-0.0073	-0.0462	0.0165	0.9585
54.1623	21.3802	730.486	39.6544	-248.9466	-28.6963	754.6686	0.0302	-6.0803	0.33774	-2.2603	-0.3414	-6.645	-0.0592	0.0182	-0.0073	-0.0462	0.0165	0.9585
54.184	23.7824	721.894	39.0376	-245.8235	-26.8019	742.162	0.10161	-7.1928	0.39701	-2.6811	-0.44125	-7.9644	-0.0592	0.0182	-0.0073	-0.0462	0.0165	0.9585
54.2057	25.8169	717.8947	38.894	-244.263	-25.516	734.7089	0.22712	-8.0404	0.47878	-2.9968	-0.59297	-8.987	-0.0592	0.0182	-0.0073	-0.0462	0.0165	0.9585
54.2274	27.5531	718.3757	39.2844	-244.2185	-24.8873	732.1199	0.44396	-8.0824	0.56394	-3.0024	-0.78545	-9.1079	-0.0592	0.0182	-0.0073	-0.0462	0.0165	0.9585
54.2491	29.0729	722.5028	40.2278	-245.3987	-24.9215	733.4943	0.78758	-6.5448	0.61598	-2.4034	-0.98787	-7.4532	-0.0592	0.0182	-0.0073	-0.0462	0.0165	0.9585
54.2709	30.4273	728.7226	41.6772	-247.2657	-25.5706	737.2329	1.2854	-2.4267	0.58051	-0.81838	-1.1421	-2.882	-0.0592	0.0182	-0.0073	-0.0462	0.0165	0.9585
54.2926	31.6123	734.9419	43.5132	-249.0968	-26.7315	741.2189	1.9431	5.4394	0.38297	2.1981	-1.157	5.9577	-0.0592	0.0182	-0.0073	-0.0462	0.0165	0.9585
54.3143	32.5721	738.8232	45.5366	-250.0896	-28.2405	743.1193	2.7255	18.2324	-0.070142	7.094	-0.90353	20.4511	-0.0592	0.0182	-0.0073	-0.0462	0.0165	0.9585
54.336	33.2085	738.1106	47.4783	-249.4761	-29.8782	740.7075	3.5313	36.8439	-0.88404	14.2055	-0.21494	41.6736	-0.0592	0.0182	-0.0073	-0.0462	0.0165	0.9585
54.3577	33.3998	730.9156	49.0454	-246.6208	-31.4056	732.1438	4.126	61.4389	-2.1585	23.5903	1.1173	69.887	-0.0592	0.0182	-0.0073	-0.0462	0.0165	0.9585
54.3794	33.0341	716.02	49.9734	-241.1254	-32.6035	716.2645	3.9583	91.0187	-3.9701	34.8612	3.3907	104.0307	-0.0592	0.0182	-0.0073	-0.0462	0.0165	0.9585
54.4011	32.0776	693.2486	50.0679	-232.9552	-33.2933	692.9161	2.4827	123.3508	-6.36	47.1596	6.8473	141.6308	-0.0592	0.0182	-0.0073	-0.0462	0.0165	0.9585
54.4229	30.6506	663.6895	49.2608	-222.5092	-33.3596	663.1362	-0.29307	155.9435	-9.1472	59.5433	11.2566	179.849	-0.0592	0.0182	-0.0073	-0.0462	0.0165	0.9585
54.4446	29.0205	629.4342	47.6348	-210.5236	-32.7755	628.8888	-4.0656	187.6726	-11.958	71.6013	16.0622	217.3456	-0.0592	0.0182	-0.0073	-0.0462	0.0165	0.9585
54.4663	27.4762	592.8593	45.3609	-197.8257	-31.585	592.3957	-8.4951	218.7848	-14.5229	83.4366	20.8241	254.3425	-0.0592	0.0182	-0.0073	-0.0462	0.0165	0.9585
54.488	26.1811	555.9006	42.6309	-185.087	-29.8889	555.4702	-13.2285	249.7507	-16.7281	95.2251	25.2802	291.3087	-0.0592	0.0182	-0.0073	-0.0462	0.0165	0.9585
54.5097	25.1367	519.8005	39.6492	-172.734	-27.8524	519.2973	-17.865	280.6115	-18.5899	106.9657	29.3019	328.1749	-0.0592	0.0182	-0.0073	-0.0462	0.0165	0.9585
54.5314	24.2354	485.1972	36.6192	-160.9796	-25.6818	484.5159	-21.9727	310.8255	-20.2087	118.4272	32.8494	364.1639	-0.0592	0.0182	-0.0073	-0.0462	0.0165	0.9585
54.5531	23.3557	452.3713	33.7099	-149.9082	-23.5623	451.4366	-25.2086	339.5035	-21.6791	129.2491	35.9115	398.0985	-0.0592	0.0182	-0.0073	-0.0462	0.0165	0.9585
54.5749	22.4434	421.4661	31.035	-139.5545	-21.614	420.2372	-27.384	365.866	-23.0279	139.1247	38.4577	428.9657	-0.0592	0.0182	-0.0073	-0.0462	0.0165	0.9585
54.5966	21.5367	392.601	28.6462	-129.9426	-19.8773	391.0621	-28.4535	389.5835	-24.2367	147.9329	40.4586	456.3256	-0.0592	0.0182	-0.0073	-0.0462	0.0165	0.9585
54.6183	20.7365	365.8531	26.5355	-121.0782	-18.3193	364.0045	-28.4983	410.7583	-25.2901	155.7265	41.9309	480.2882	-0.0592	0.0182	-0.0073	-0.0462	0.0165	0.9585
54.64	20.1554	341.1677	24.654	-112.922	-16.8629	339.0229	-27.7126	429.7623	-26.1909	162.6633	42.9489	501.3287	-0.0592	0.0182	-0.0073	-0.0462	0.0165	0.9585
54.6617	19.8635	318.3208	22.9394	-105.3808	-15.4324	315.9039	-26.3661	447.1557	-26.9602	168.9706	43.6256	520.1913	-0.0592	0.0182	-0.0073	-0.0462	0.0165	0.9585
54.6834	19.8466	296.9194	21.3348	-98.3069	-13.9864	294.2689	-24.753	463.6134	-27.647	174.9131	44.1062	537.7762	-0.0592	0.0182	-0.0073	-0.0462	0.0165	0.9585
